<svg width="193" height="193" viewBox="0 0 193 193" fill="none" xmlns="http://www.w3.org/2000/svg">
<path fill-rule="evenodd" clip-rule="evenodd" d="M188.185 122.947C187.824 124.179 187.439 125.402 187.029 126.616L65.4357 5.02228C66.6477 4.61629 67.8726 4.23267 69.11 3.87201L188.185 122.947ZM60.6719 6.7585C61.8941 6.27624 63.1308 5.81726 64.3814 5.38222L186.668 127.668C186.232 128.913 185.771 130.148 185.285 131.372L60.6719 6.7585ZM190.678 112.178C190.421 113.678 190.129 115.169 189.802 116.649L75.4127 2.26046C76.9031 1.93182 78.3936 1.63991 79.8833 1.38414L190.678 112.178ZM71.8708 3.1111C72.667 2.90413 73.4634 2.70779 74.26 2.52197L189.54 117.802C189.222 119.16 188.876 120.509 188.5 121.848L70.2105 3.55827C70.7615 3.40466 71.3149 3.25559 71.8708 3.1111ZM3.00527 119.767C3.03999 119.903 3.07503 120.039 3.11038 120.175C3.67748 122.357 4.31522 124.501 5.02049 126.607L65.4502 187.037C67.7045 187.796 69.9903 188.473 72.3032 189.065L3.00527 119.767ZM9.43584 137.522C8.08366 134.693 6.86063 131.776 5.77603 128.777L63.2733 186.274C60.2826 185.186 57.3511 183.951 54.4896 182.576L9.43584 137.522ZM10.8408 140.342L51.6565 181.157C46.3179 178.373 41.2444 175.092 36.5099 171.358L20.5743 155.422C16.8999 150.76 13.6327 145.72 10.8408 140.342ZM2.54661 117.894L74.1768 189.525C76.2736 190.016 78.3914 190.438 80.5269 190.789L1.27871 111.541C1.62794 113.658 2.05002 115.776 2.54661 117.894ZM1.0174 109.865L82.2005 191.048C84.1973 191.34 86.2087 191.568 88.2321 191.733L0.324319 103.825C0.490512 105.834 0.721062 107.849 1.0174 109.865ZM0.210228 102.297C0.0924518 100.528 0.0243845 98.7641 0.00504367 97.0058L95.0415 192.042C93.2731 192.025 91.5115 191.959 89.7582 191.845L0.210228 102.297ZM0.133853 90.8959C0.0509618 92.4535 0.00611048 94.0175 0 95.5866L96.4588 192.045C98.0159 192.037 99.5779 191.991 101.144 191.906L0.133853 90.8959ZM0.214221 89.562C0.319176 88.0024 0.462243 86.4496 0.642715 84.9047L107.129 191.391C105.575 191.573 104.024 191.718 102.476 191.824L0.214221 89.562ZM1.51727 79.0181C1.24034 80.5515 1.00042 82.0946 0.798242 83.646L108.386 191.234C109.927 191.032 111.469 190.792 113.012 190.513L1.51727 79.0181ZM1.74022 77.8268C2.01175 76.4252 2.31425 75.0319 2.64716 73.6479L118.383 189.383C116.99 189.718 115.596 190.019 114.203 190.29L1.74022 77.8268ZM3.96902 68.731C3.59642 69.9834 3.24903 71.2446 2.92729 72.5138L119.517 189.104C119.736 189.049 119.955 188.993 120.174 188.936C121.226 188.662 122.27 188.372 123.304 188.066L3.96902 68.731ZM4.29867 67.6465C4.69635 66.3653 5.12049 65.0938 5.57062 63.8326L128.211 186.472C126.951 186.919 125.678 187.341 124.39 187.738L4.29867 67.6465ZM7.45996 58.9608C6.92888 60.2272 6.42458 61.5057 5.94756 62.7953L129.25 186.097C130.546 185.621 131.826 185.119 133.091 184.591L7.45996 58.9608ZM7.8824 57.969C8.39064 56.7941 8.92204 55.6298 9.47618 54.477L137.581 182.582C136.43 183.133 135.264 183.663 134.084 184.171L7.8824 57.969ZM11.5849 50.3469C11.017 51.3962 10.4684 52.4561 9.93961 53.5262L138.533 182.12C139.607 181.591 140.668 181.043 141.715 180.477L11.5849 50.3469ZM12.0857 49.4335C12.6878 48.3491 13.3107 47.2764 13.9541 46.216L145.848 178.11C144.79 178.752 143.717 179.374 142.629 179.977L12.0857 49.4335ZM16.5976 42.0984C15.8741 43.1649 15.1721 44.2456 14.4921 45.3399L146.725 177.572C147.821 176.891 148.902 176.189 149.965 175.466L16.5976 42.0984ZM17.173 41.2596C17.8651 40.2623 18.5761 39.2777 19.3057 38.3065L153.755 172.756C152.787 173.485 151.803 174.196 150.804 174.89L17.173 41.2596ZM22.0553 34.8173C21.326 35.7001 20.6129 36.5954 19.9162 37.5028L154.558 172.144C155.466 171.445 156.36 170.731 157.24 170.002L22.0553 34.8173ZM22.6988 34.0466C23.473 33.1289 24.2649 32.2253 25.0741 31.3361L160.716 166.978C159.83 167.787 158.928 168.58 158.01 169.357L22.6988 34.0466ZM28.3797 27.8806C27.4851 28.7703 26.6089 29.6768 25.7516 30.5993L161.451 166.299C162.374 165.438 163.279 164.56 164.165 163.666L28.3797 27.8806ZM29.0925 27.1791C29.9508 26.3431 30.8256 25.5224 31.7166 24.7174L167.322 160.323C166.52 161.214 165.701 162.09 164.865 162.952L29.0925 27.1791ZM35.0669 21.8289C34.1847 22.5545 33.3168 23.2951 32.4634 24.0499L167.988 159.575C168.743 158.718 169.482 157.849 170.206 156.968L35.0669 21.8289ZM35.8465 21.1943C36.7864 20.4376 37.7419 19.6976 38.7129 18.9749L173.055 153.317C172.335 154.287 171.596 155.244 170.839 156.187L35.8465 21.1943ZM42.6772 16.178C41.6105 16.8906 40.5605 17.6232 39.5275 18.3752L173.654 152.502C174.407 151.466 175.139 150.415 175.85 149.351L42.6772 16.178ZM43.5289 15.6155C44.5569 14.9446 45.6001 14.2921 46.6579 13.6587L178.369 145.37C177.737 146.425 177.084 147.468 176.412 148.499L43.5289 15.6155ZM50.6404 11.4024C49.596 11.9614 48.5646 12.5385 47.5466 13.1332L178.895 144.481C179.491 143.462 180.069 142.431 180.628 141.39L50.6404 11.4024ZM51.5658 10.9136C52.6843 10.3306 53.8175 9.76818 54.965 9.22695L182.808 137.07C182.266 138.213 181.703 139.345 181.117 140.465L51.5658 10.9136ZM59.6625 7.16338C58.4027 7.67701 57.1586 8.21552 55.9304 8.77815L183.258 136.106C183.824 134.876 184.364 133.633 184.878 132.379L59.6625 7.16338ZM191.934 100.697C191.862 102.203 191.753 103.703 191.61 105.196L86.8608 0.447315C88.3618 0.30157 89.8604 0.191848 91.3555 0.117553L191.934 100.697ZM81.0971 1.18369C82.5927 0.946492 84.0872 0.745591 85.5796 0.580407L191.478 106.478C191.313 107.981 191.113 109.477 190.878 110.964L81.0971 1.18369ZM191.624 87.1247C191.804 89.0339 191.926 90.9391 191.991 92.8383L99.2032 0.0509327C101.114 0.113457 103.017 0.233314 104.908 0.409219L191.624 87.1247ZM92.712 0.0598176C94.3975 9.001e-05 96.0782 -0.0147181 97.7526 0.0145352L192.029 94.291C192.061 95.9792 192.048 97.6621 191.991 99.3383L92.712 0.0598176ZM188.935 71.8715C189.456 73.8745 189.909 75.8792 190.297 77.8831L114.139 1.72542C116.241 2.13085 118.325 2.60596 120.387 3.14886L188.873 71.6351L188.917 71.8029L188.935 71.8715ZM106.482 0.568757C108.471 0.787047 110.447 1.0673 112.407 1.40802L190.615 79.6162C190.961 81.5959 191.243 83.5741 191.462 85.5487L106.482 0.568757ZM180.052 49.5527C181.862 52.8317 183.493 56.2427 184.929 59.7764L132.279 7.12699C135.801 8.56635 139.231 10.2119 142.552 12.0528L180.052 49.5527ZM122.336 3.68427C124.912 4.42076 127.451 5.26354 129.947 6.20886L185.837 62.0993C186.768 64.5726 187.604 67.1033 188.34 69.6881L122.336 3.68427ZM145.927 14.0141C158.902 21.9077 170.024 32.8665 178.107 46.1937L145.927 14.0141Z" fill="url(#paint0_linear_36_195)" fill-opacity="0.45"/>
<defs>
<linearGradient id="paint0_linear_36_195" x1="-14.3714" y1="11.1881" x2="206.95" y2="172.869" gradientUnits="userSpaceOnUse">
<stop stop-color="#FF825A"/>
<stop offset="0.5" stop-color="#2E8EFF"/>
<stop offset="1" stop-color="#323131"/>
</linearGradient>
</defs>
</svg>
